{
    "asset" : {
        "generator" : "Khronos glTF Blender I/O v3.2.43",
        "version" : "2.0"
    },
    "scene" : 0,
    "scenes" : [
        {
            "name" : "Scene",
            "nodes" : [
                0
            ]
        }
    ],
    "nodes" : [
        {
            "mesh" : 0,
            "name" : "A",
            "rotation" : [
                0.7071068286895752,
                0,
                0,
                0.7071067094802856
            ],
            "scale" : [
                0.08230273425579071,
                0.08230274170637131,
                0.08230274170637131
            ]
        }
    ],
    "materials" : [
        {
            "doubleSided" : true,
            "name" : "Color",
            "pbrMetallicRoughness" : {
                "baseColorTexture" : {
                    "index" : 0
                },
                "metallicRoughnessTexture" : {
                    "index" : 1
                }
            }
        }
    ],
    "meshes" : [
        {
            "name" : "A",
            "primitives" : [
                {
                    "attributes" : {
                        "POSITION" : 0,
                        "NORMAL" : 1,
                        "TEXCOORD_0" : 2
                    },
                    "indices" : 3,
                    "material" : 0
                }
            ]
        }
    ],
    "textures" : [
        {
            "sampler" : 0,
            "source" : 0
        },
        {
            "sampler" : 0,
            "source" : 1
        }
    ],
    "images" : [
        {
            "bufferView" : 4,
            "mimeType" : "image/png",
            "name" : "Material_Base_Color"
        },
        {
            "bufferView" : 5,
            "mimeType" : "image/png",
            "name" : "Material_Metallic-Material_Roughness"
        }
    ],
    "accessors" : [
        {
            "bufferView" : 0,
            "componentType" : 5126,
            "count" : 5348,
            "max" : [
                3.645465850830078,
                1.2615807056427002,
                3.8694210052490234
            ],
            "min" : [
                -3.645505905151367,
                -1.2683911323547363,
                -4.513235092163086
            ],
            "type" : "VEC3"
        },
        {
            "bufferView" : 1,
            "componentType" : 5126,
            "count" : 5348,
            "type" : "VEC3"
        },
        {
            "bufferView" : 2,
            "componentType" : 5126,
            "count" : 5348,
            "type" : "VEC2"
        },
        {
            "bufferView" : 3,
            "componentType" : 5123,
            "count" : 23808,
            "type" : "SCALAR"
        }
    ],
    "bufferViews" : [
        {
            "buffer" : 0,
            "byteLength" : 64176,
            "byteOffset" : 0
        },
        {
            "buffer" : 0,
            "byteLength" : 64176,
            "byteOffset" : 64176
        },
        {
            "buffer" : 0,
            "byteLength" : 42784,
            "byteOffset" : 128352
        },
        {
            "buffer" : 0,
            "byteLength" : 47616,
            "byteOffset" : 171136
        },
        {
            "buffer" : 0,
            "byteLength" : 16905,
            "byteOffset" : 218752
        },
        {
            "buffer" : 0,
            "byteLength" : 59420,
            "byteOffset" : 235660
        }
    ],
    "samplers" : [
        {
            "magFilter" : 9729,
            "minFilter" : 9987
        }
    ],
    "buffers" : [
        {
            "byteLength" : 295080,
            "uri" : "data:application/octet-stream;base64,"
        }
    ]
}
